<svg xmlns="http://www.w3.org/2000/svg" viewBox="0 0 1448 1086" width="1448" height="1086">
  <defs>
    <radialGradient id="bg" cx="50%" cy="48%" r="75%"><stop offset="0" stop-color="#09213a"/><stop offset="0.46" stop-color="#03101f"/><stop offset="1" stop-color="#02050a"/></radialGradient>
    <radialGradient id="core" cx="50%" cy="50%" r="50%"><stop offset="0" stop-color="#ffffff"/><stop offset="0.03" stop-color="#7ee7ff"/><stop offset="0.10" stop-color="#0b7bd8" stop-opacity="0.75"/><stop offset="0.50" stop-color="#072041" stop-opacity="0.42"/><stop offset="1" stop-color="#000000" stop-opacity="0"/></radialGradient>
    <filter id="glow"><feGaussianBlur stdDeviation="3.8" result="b"/><feMerge><feMergeNode in="b"/><feMergeNode in="SourceGraphic"/></feMerge></filter>
    <filter id="soft"><feGaussianBlur stdDeviation="1.6" result="b"/><feMerge><feMergeNode in="b"/><feMergeNode in="SourceGraphic"/></feMerge></filter>
    <linearGradient id="cyanLine" x1="0" x2="1"><stop offset="0" stop-color="#0e6fa6" stop-opacity="0"/><stop offset="0.5" stop-color="#1bd9ff"/><stop offset="1" stop-color="#0e6fa6" stop-opacity="0"/></linearGradient>
    <linearGradient id="redLine" x1="0" x2="1"><stop offset="0" stop-color="#ff365f"/><stop offset="0.6" stop-color="#ff365f" stop-opacity="0.35"/><stop offset="1" stop-color="#ff365f" stop-opacity="0"/></linearGradient>
    <style><![CDATA[
      .mono{font-family:Consolas,Menlo,monospace}.logo{font-size:28px;letter-spacing:23px;fill:#dff8ff;filter:url(#glow)}.sub{font-size:9px;letter-spacing:1.4px;fill:#0eb6ea}.title{font-size:16px;letter-spacing:3px;fill:#05d8ff;font-weight:700}.small{font-size:11px;letter-spacing:1.2px;fill:#55cfff}.tiny{font-size:9px;letter-spacing:.8px;fill:#65bede}.muted{fill:#2f769a}.green{fill:#4ce8a0}.red{fill:#ff365f}.cyan{fill:#05d8ff}.white{fill:#dff8ff}.panel{fill:#03101d;fill-opacity:.55;stroke:#0e8fd0;stroke-opacity:.55;stroke-width:1}.panel2{fill:#020914;fill-opacity:.35;stroke:#0d6c9d;stroke-opacity:.55;stroke-width:1}.thin{stroke:#0d89c8;stroke-opacity:.55;stroke-width:1;fill:none}.thin2{stroke:#166b98;stroke-opacity:.32;stroke-width:1;fill:none}.barbg{fill:#061320;stroke:#0b5f88;stroke-opacity:.7}.bar{fill:#12c8ff;filter:url(#soft)}.rbar{fill:#ff365f;filter:url(#soft)}.dot{fill:#16cfff;filter:url(#glow)}.rdot{fill:#ff365f;filter:url(#glow)}.diag{font-size:10px;letter-spacing:.9px;fill:#78c4e2}.num{font-size:32px;fill:#22d7ff;font-weight:700;filter:url(#glow)}
    ]]></style>
    <pattern id="grid" width="46" height="46" patternUnits="userSpaceOnUse"><path d="M46 0H0v46" fill="none" stroke="#0a5e86" stroke-width="1" opacity=".22"/></pattern>
    <g id="bootIcon"><circle r="27" fill="none" stroke="#06c8ff" stroke-width="1.2"/><circle r="20" fill="none" stroke="#06c8ff" stroke-opacity=".35"/><path d="M0-18v36M-18 0h36M-13-13l26 26M13-13l-26 26" stroke="#05d8ff" stroke-width="1" opacity=".75"/><circle r="4" fill="#05d8ff" filter="url(#glow)"/></g>
  </defs>
  <rect width="1448" height="1086" fill="url(#bg)"/>
  <rect width="1448" height="1086" fill="url(#grid)" opacity=".36"/>
  <circle cx="724" cy="510" r="430" fill="none" stroke="#0b6d9f" stroke-opacity=".20"/>
  <circle cx="724" cy="510" r="360" fill="none" stroke="#0b9fd8" stroke-opacity=".26"/>
  <text x="34" y="48" class="mono logo">JARVIS</text>
  <text x="34" y="76" class="mono sub">ADVANCED REACTIVE VIRTUAL INTELLIGENCE SYSTEM</text>
  <text x="600" y="50" text-anchor="middle" class="mono title">••••• BOOT SEQUENCE INITIATED •••••</text>
  <g class="mono" transform="translate(1070 34)"><text class="tiny cyan">CORE TEMP</text><text y="31" class="title">34.2°C</text><line x1="74" y1="0" x2="74" y2="38" stroke="#0b6d9f"/><text x="92" class="tiny cyan">CPU LOAD</text><text x="92" y="31" class="title">67%</text><line x1="166" y1="0" x2="166" y2="38" stroke="#0b6d9f"/><text x="184" class="tiny cyan">MEMORY</text><text x="184" y="31" class="title">8.3/12.0GB</text><line x1="292" y1="0" x2="292" y2="38" stroke="#0b6d9f"/><text x="310" class="tiny cyan">NET UPLINK</text><text x="310" y="31" class="title">1.26GB/s</text></g>
  <text x="720" y="113" text-anchor="middle" class="mono title">CORE INITIALIZATION</text>
  <text x="720" y="157" text-anchor="middle" class="mono num">92%</text>

  <g filter="url(#glow)">
    <line x1="170" y1="206" x2="724" y2="510" stroke="url(#redLine)" stroke-width="1.4" opacity=".75"/>
    <line x1="225" y1="462" x2="1190" y2="452" stroke="url(#redLine)" stroke-width="1.5" opacity=".95"/>
    <line x1="340" y1="700" x2="724" y2="510" stroke="url(#redLine)" stroke-width="1.2" opacity=".62"/>
    <line x1="724" y1="510" x2="1100" y2="220" stroke="url(#redLine)" stroke-width="1.3" opacity=".64"/>
    <line x1="724" y1="510" x2="1260" y2="600" stroke="url(#redLine)" stroke-width="1.2" opacity=".56"/>
    <path d="M285 455 C360 430 410 475 460 450 S570 405 640 485 S780 580 850 500 S970 350 1085 220" fill="none" stroke="#ff365f" stroke-width="1.4" opacity=".65"/>
    <path d="M160 305 C290 230 360 270 465 320 S570 410 724 510 S920 640 1260 735" fill="none" stroke="#ff365f" stroke-width="1.1" opacity=".42"/>
  </g>

  <g transform="translate(724 510)">
    <circle r="330" fill="url(#core)"/>
    <circle r="258" class="thin" stroke-width="2" filter="url(#glow)"/>
    <circle r="232" class="thin2"/><circle r="195" class="thin2"/><circle r="147" class="thin2"/><circle r="92" class="thin2"/>
    <g stroke="#0cc6ff" stroke-width="1" opacity=".58"><line x1="-330" x2="330"/><line y1="-330" y2="330"/><line x1="-235" y1="-235" x2="235" y2="235"/><line x1="235" y1="-235" x2="-235" y2="235"/></g>
    <g fill="none" stroke="#12c8ff" stroke-width="8" stroke-linecap="butt" opacity=".72" filter="url(#glow)"><path d="M-210-170 A270 270 0 0 1 -80-255"/><path d="M100-250 A270 270 0 0 1 225-130"/><path d="M250 90 A270 270 0 0 1 115 245"/><path d="M-90 255 A270 270 0 0 1 -245 105"/><path d="M-255-70 A270 270 0 0 1 -235-135"/></g>
    <g fill="#12c8ff" opacity=".75" filter="url(#soft)">
      <rect x="-80" y="-292" width="8" height="20"/><rect x="-64" y="-292" width="8" height="20"/><rect x="-48" y="-292" width="8" height="20"/><rect x="-32" y="-292" width="8" height="20"/><rect x="-16" y="-292" width="8" height="20"/><rect x="0" y="-292" width="8" height="20"/><rect x="16" y="-292" width="8" height="20"/><rect x="32" y="-292" width="8" height="20"/><rect x="48" y="-292" width="8" height="20"/><rect x="64" y="-292" width="8" height="20"/>
      <rect x="-80" y="272" width="8" height="20"/><rect x="-64" y="272" width="8" height="20"/><rect x="-48" y="272" width="8" height="20"/><rect x="-32" y="272" width="8" height="20"/><rect x="-16" y="272" width="8" height="20"/><rect x="0" y="272" width="8" height="20"/><rect x="16" y="272" width="8" height="20"/><rect x="32" y="272" width="8" height="20"/><rect x="48" y="272" width="8" height="20"/><rect x="64" y="272" width="8" height="20"/>
    </g>
    <g fill="#19d6ff" opacity=".9">
      <circle cx="0" cy="0" r="5" filter="url(#glow)"/>
      <circle cx="-70" cy="-90" r="2"/><circle cx="90" cy="-55" r="2"/><circle cx="-120" cy="60" r="2"/><circle cx="150" cy="95" r="2"/><circle cx="30" cy="-145" r="2"/><circle cx="-15" cy="165" r="2"/>
    </g>
    <g stroke="#2ee1ff" stroke-width="1" opacity=".7"><line x1="0" y1="0" x2="-70" y2="-90"/><line x1="0" y1="0" x2="90" y2="-55"/><line x1="0" y1="0" x2="-120" y2="60"/><line x1="0" y1="0" x2="150" y2="95"/><line x1="0" y1="0" x2="30" y2="-145"/><line x1="0" y1="0" x2="-15" y2="165"/></g>
  </g>

  <g class="mono" transform="translate(34 125)"><text class="white" font-size="13" letter-spacing="1.6">BOOT SEQUENCE</text><line x1="124" y1="-3" x2="312" y2="-3" stroke="#0a98d2"/><circle cx="250" cy="-3" r="2" class="dot"/>
    <g transform="translate(0 60)"><use href="#bootIcon" x="34" y="0"/><text x="100" y="-8" class="title">INITIALIZING CORE</text><text x="100" y="16" class="small muted">SYSTEM WAKE</text><rect x="100" y="38" width="180" height="4" class="barbg"/><rect x="100" y="38" width="162" height="4" class="bar"/><text x="298" y="42" class="title">92%</text></g>
    <g transform="translate(0 150)"><use href="#bootIcon" x="34" y="0"/><text x="100" y="-8" class="title">SYNCING MEMORY BANKS</text><text x="100" y="16" class="small muted">CACHE ALIGNMENT</text><rect x="100" y="38" width="180" height="4" class="barbg"/><rect x="100" y="38" width="121" height="4" class="bar"/><text x="298" y="42" class="title">67%</text></g>
    <g transform="translate(0 240)"><circle cx="34" cy="0" r="27" fill="none" stroke="#ff365f"/><path d="M34-20v40M14 0h40M20-14l28 28M48-14L20 14" stroke="#ff365f"/><circle cx="34" cy="0" r="5" class="rdot"/><text x="100" y="-8" class="title red">NEURAL NETWORK LINK</text><text x="100" y="16" class="small muted">ESTABLISHING SYNAPTIC GRID</text><rect x="100" y="38" width="180" height="4" class="barbg"/><rect x="100" y="38" width="77" height="4" class="rbar"/><text x="298" y="42" class="title red">43%</text></g>
    <g transform="translate(0 330)"><use href="#bootIcon" x="34" y="0"/><text x="100" y="-8" class="title">LOADING INTERFACE MODULES</text><text x="100" y="16" class="small muted">HOLOGRAPHIC LAYER INIT</text><rect x="100" y="38" width="180" height="4" class="barbg"/><rect x="100" y="38" width="50" height="4" class="bar"/><text x="298" y="42" class="title">28%</text></g>
    <g transform="translate(0 420)"><use href="#bootIcon" x="34" y="0"/><text x="100" y="-8" class="title">SYSTEM WAKE SEQUENCE</text><text x="100" y="16" class="small muted">ACTIVATING CORE PROTOCOLS</text><rect x="100" y="38" width="180" height="4" class="barbg"/><text x="298" y="42" class="title">0%</text></g>
    <g transform="translate(0 510)"><text class="title" font-size="13">SYSTEM STATUS</text><line x1="130" y1="-4" x2="310" y2="-4" stroke="#0a98d2"/><g transform="translate(24 26)" class="diag"><text>CORE SYSTEMS</text><text y="27">NEURAL NETWORK</text><text y="54">MEMORY BANKS</text><text y="81">I/O INTERFACES</text><text y="108">SECURITY LAYER</text><text y="135">POWER MANAGEMENT</text><text y="162">HOLOGRAPHIC ENGINE</text><text y="189">VOICE MODULE</text></g><g transform="translate(210 23)"><circle cx="0" cy="0" r="4" class="dot"/><circle cx="24" cy="0" r="4" class="dot"/><circle cx="48" cy="0" r="4" class="dot"/><circle cx="72" cy="0" r="4" class="thin"/><circle cy="27" r="4" class="dot"/><circle cx="24" cy="27" r="4" class="dot"/><circle cx="48" cy="27" r="4" class="thin"/><circle cx="72" cy="27" r="4" class="thin"/><circle cy="54" r="4" class="dot"/><circle cx="24" cy="54" r="4" class="dot"/><circle cx="48" cy="54" r="4" class="thin"/><circle cx="72" cy="54" r="4" class="thin"/><circle cy="81" r="4" class="dot"/><circle cx="24" cy="81" r="4" class="dot"/><circle cx="48" cy="81" r="4" class="thin"/><circle cx="72" cy="81" r="4" class="thin"/><circle cy="108" r="4" class="dot"/><circle cx="24" cy="108" r="4" class="thin"/><circle cx="48" cy="108" r="4" class="thin"/><circle cx="72" cy="108" r="4" class="thin"/><circle cy="135" r="4" class="dot"/><circle cx="24" cy="135" r="4" class="thin"/><circle cx="48" cy="135" r="4" class="thin"/><circle cx="72" cy="135" r="4" class="thin"/><circle cy="162" r="4" class="dot"/><circle cx="24" cy="162" r="4" class="thin"/><circle cx="48" cy="162" r="4" class="thin"/><circle cx="72" cy="162" r="4" class="thin"/><circle cy="189" r="4" class="dot"/><circle cx="24" cy="189" r="4" class="thin"/><circle cx="48" cy="189" r="4" class="thin"/><circle cx="72" cy="189" r="4" class="thin"/></g></g>
    <g transform="translate(0 760)"><circle cx="40" cy="34" r="34" fill="none" stroke="#0db9ef"/><path d="M40 6v56M12 34h56M20 14l40 40M60 14L20 54" stroke="#0db9ef" opacity=".7"/><text x="100" y="12" class="small">TIME STAMP</text><text x="100" y="40" class="small">26 · 04 · 2026</text><text x="100" y="66" class="small">13:13:16</text><text x="240" y="12" class="small">UPTIME</text><text x="240" y="40" class="small red">00:00:01</text></g>
  </g>

  <g class="mono" transform="translate(1060 103)"><rect width="340" height="215" rx="8" class="panel"/><text x="16" y="28" class="title">NEURAL ACTIVITY</text><text x="306" y="28" class="tiny red">● LIVE</text><text x="16" y="48" class="small muted">REAL-TIME FEED</text><rect x="40" y="78" width="260" height="88" class="panel2"/><polyline points="40,142 60,120 82,138 105,104 128,134 148,80 170,114 193,70 216,126 238,94 260,136 300,102" fill="none" stroke="#12c8ff" stroke-width="1.4"/><polyline points="40,130 62,150 84,115 106,92 128,132 150,104 172,126 194,118 216,78 238,142 260,104 300,118" fill="none" stroke="#ff365f" stroke-width="1.2"/><text x="16" y="190" class="small muted">OVERALL ACTIVITY</text><text x="303" y="190" class="small cyan">72%</text><rect x="16" y="200" width="296" height="4" class="barbg"/><rect x="16" y="200" width="214" height="4" class="bar"/>
    <g transform="translate(0 232)"><rect width="340" height="240" rx="8" class="panel"/><text x="16" y="30" class="title">SYSTEM DIAGNOSTICS</text><g class="diag" transform="translate(16 65)"><text>CORE SYSTEMS</text><text y="27">NEURAL NETWORK</text><text y="54">MEMORY BANKS</text><text y="81">I/O INTERFACES</text><text y="108">SECURITY LAYER</text><text y="135">POWER MANAGEMENT</text><text y="162">HOLOGRAPHIC ENGINE</text><text y="189">VOICE MODULE</text></g><g class="diag" transform="translate(225 65)"><text class="green">OPTIMAL</text><text y="27" class="green">SYNCING</text><text y="54" class="green">SYNCING</text><text y="81" class="green">ACTIVE</text><text y="108" class="green">INIT</text><text y="135" class="green">NOMINAL</text><text y="162" class="green">LOADING</text><text y="189">PENDING</text></g><g transform="translate(318 61)"><circle r="4" class="dot"/><circle cy="27" r="4" class="dot"/><circle cy="54" r="4" class="dot"/><circle cy="81" r="4" class="rdot"/><circle cy="108" r="4" class="thin"/><circle cy="135" r="4" class="thin"/><circle cy="162" r="4" class="thin"/><circle cy="189" r="4" class="thin"/></g></g>
    <g transform="translate(0 490)"><rect width="340" height="200" rx="8" class="panel"/><text x="16" y="30" class="title">BOOT LOG</text><text x="16" y="65" class="tiny">13:13:15.102    SYSTEM POWER ON</text><text x="16" y="86" class="tiny">13:13:15.215    BIOS HANDSHAKE... OK</text><text x="16" y="107" class="tiny">13:13:15.367    CORE SYSTEMS... OK</text><text x="16" y="128" class="tiny">13:13:15.589    MEMORY DETECT... OK</text><text x="16" y="149" class="tiny">13:13:15.812    NEURAL NETWORK... SYNCING</text><text x="16" y="170" class="tiny">13:13:16.045    HOLOGRAPHIC ENGINE... LOADING</text><line x1="324" y1="45" x2="324" y2="178" stroke="#0fbce9"/></g>
    <g transform="translate(0 714)"><rect width="340" height="94" rx="8" class="panel"/><rect x="28" y="22" width="55" height="55" class="panel2"/><path d="M55 34c-16 0-22 14-22 26m22-26c16 0 22 14 22 26m-34 0c0-9 5-16 12-16s12 7 12 16m-23 11c5 5 17 5 22 0" fill="none" stroke="#05d8ff"/><text x="100" y="34" class="title">SECURITY PROTOCOL</text><text x="100" y="56" class="small">BIOMETRIC AUTHENTICATION</text><text x="100" y="76" class="small">CLEARANCE LEVEL: ALPHA-1</text></g>
  </g>

  <g class="mono" transform="translate(364 858)"><text x="220" y="0" class="small cyan">CALIBRATING NEURAL PATHWAYS</text><text x="560" y="0" class="small muted">ESTIMATED TIME REMAINING</text><text x="735" y="4" class="title">00:00:07</text><path d="M105 36h620l42 22-42 22H105L64 58z" fill="#03101d" stroke="#0aaee5" stroke-opacity=".65"/><rect x="92" y="52" width="505" height="12" class="barbg"/><rect x="94" y="53" width="448" height="10" class="bar"/><circle cx="548" cy="58" r="4" class="rdot"/><text x="260" y="116" class="title" letter-spacing="9">SYSTEM STABILIZING... PLEASE STANDBY</text></g>
</svg>