<svg xmlns="http://www.w3.org/2000/svg" viewBox="0 0 1600 900" width="1600" height="900">
  <defs>
    <radialGradient id="bg" cx="50%" cy="50%" r="75%"><stop offset="0" stop-color="#082a48"/><stop offset=".52" stop-color="#03111e"/><stop offset="1" stop-color="#02050a"/></radialGradient>
    <radialGradient id="coreGlow" cx="50%" cy="50%" r="50%"><stop offset="0" stop-color="#ffffff"/><stop offset=".035" stop-color="#7ee7ff"/><stop offset=".13" stop-color="#0b85df" stop-opacity=".9"/><stop offset=".55" stop-color="#06203d" stop-opacity=".45"/><stop offset="1" stop-color="#000" stop-opacity="0"/></radialGradient>
    <filter id="g"><feGaussianBlur stdDeviation="3" result="b"/><feMerge><feMergeNode in="b"/><feMergeNode in="SourceGraphic"/></feMerge></filter>
    <filter id="s"><feGaussianBlur stdDeviation="1.2" result="b"/><feMerge><feMergeNode in="b"/><feMergeNode in="SourceGraphic"/></feMerge></filter>
    <linearGradient id="bar" x1="0" x2="1"><stop offset="0" stop-color="#0b5f90"/><stop offset=".5" stop-color="#12d9ff"/><stop offset="1" stop-color="#3ee6ff"/></linearGradient>
    <linearGradient id="red" x1="0" x2="1"><stop offset="0" stop-color="#ff365f"/><stop offset=".55" stop-color="#ff365f" stop-opacity=".65"/><stop offset="1" stop-color="#ff365f" stop-opacity="0"/></linearGradient>
    <pattern id="grid" width="52" height="52" patternUnits="userSpaceOnUse"><path d="M52 0H0v52" fill="none" stroke="#0a5d86" stroke-width="1" opacity=".24"/></pattern>
    <style><![CDATA[
      .m{font-family:Consolas,Menlo,monospace}.panel{fill:#020b16;fill-opacity:.68;stroke:#0aaee5;stroke-opacity:.72;stroke-width:1}.thin{fill:none;stroke:#0bbce8;stroke-opacity:.48}.thin2{fill:none;stroke:#166b98;stroke-opacity:.34}.t{fill:#7ee7ff;font-size:18px;letter-spacing:1.4px}.st{fill:#bdefff;font-size:12px;letter-spacing:1px}.xs{fill:#83cde7;font-size:10px;letter-spacing:.8px}.num{fill:#7ee7ff;font-size:62px;font-weight:700;filter:url(#g)}.white{fill:#eafcff}.green{fill:#4ce8a0}.redt{fill:#ff365f}.barbg{fill:#061320;stroke:#0d5e88;stroke-opacity:.7}.bar{fill:url(#bar);filter:url(#s)}.rbar{fill:#ff365f;filter:url(#s)}.glow{filter:url(#g)}
    ]]></style>
  </defs>
  <rect width="1600" height="900" fill="url(#bg)"/>
  <rect width="1600" height="900" fill="url(#grid)" opacity=".58"/>
  <g opacity=".22" stroke="#0bbce8"><path d="M0 450h1600M800 0v900M220 0l420 450-420 450M1380 0 960 450l420 450"/></g>

  <text x="40" y="62" class="m white" font-size="48" letter-spacing="9">JARVIS</text>
  <text x="42" y="90" class="m" fill="#a7eaff" font-size="16">JUST A RATHER VERY</text>
  <text x="42" y="112" class="m" fill="#a7eaff" font-size="16">INTELLIGENT SYSTEM</text>

  <text x="800" y="28" text-anchor="middle" class="m white" font-size="14">BOOT PHASE</text>
  <text x="800" y="55" text-anchor="middle" class="m" fill="#bdefff" font-size="16">SYSTEM INITIALIZATION</text>
  <text x="800" y="108" text-anchor="middle" class="m num">68%</text>

  <g class="m" transform="translate(970 20)">
    <g><rect class="panel" width="120" height="92" rx="3"/><text x="14" y="27" class="white" font-size="16">CPU</text><text x="14" y="58" class="t">62%</text><polyline points="18,78 26,72 34,80 42,64 50,76 58,69 66,82 74,61 82,73 90,67 98,77 110,70" fill="none" stroke="#3ee6ff"/></g>
    <g transform="translate(137 0)"><rect class="panel" width="120" height="92" rx="3"/><text x="14" y="27" class="white" font-size="16">MEMORY</text><text x="14" y="58" class="t">74%</text><rect x="14" y="73" width="88" height="8" class="barbg"/><rect x="15" y="74" width="66" height="6" class="bar"/></g>
    <g transform="translate(274 0)"><rect class="panel" width="120" height="92" rx="3"/><text x="14" y="27" class="white" font-size="16">THERMAL</text><text x="14" y="58" class="t">43°C</text><polyline points="18,78 28,76 38,79 48,73 58,78 68,74 78,79 88,70 98,77 110,73" fill="none" stroke="#3ee6ff"/></g>
    <g transform="translate(411 0)"><rect class="panel" width="120" height="92" rx="3"/><text x="14" y="27" class="white" font-size="16">UPLINK</text><text x="14" y="58" class="t">98%</text><polyline points="18,79 30,78 42,76 54,80 66,72 78,77 90,69 102,75 112,71" fill="none" stroke="#3ee6ff"/></g>
  </g>

  <g filter="url(#g)">
    <line x1="170" y1="206" x2="800" y2="455" stroke="url(#red)" stroke-width="1.4" opacity=".75"/>
    <line x1="225" y1="462" x2="1190" y2="452" stroke="url(#red)" stroke-width="1.5" opacity=".95"/>
    <line x1="340" y1="700" x2="800" y2="455" stroke="url(#red)" stroke-width="1.2" opacity=".62"/>
    <line x1="800" y1="455" x2="1100" y2="220" stroke="url(#red)" stroke-width="1.3" opacity=".64"/>
    <line x1="800" y1="455" x2="1260" y2="600" stroke="url(#red)" stroke-width="1.2" opacity=".56"/>
    <path d="M285 455 C360 430 410 475 460 450 S570 405 640 485 S780 580 850 500 S970 350 1085 220" fill="none" stroke="#ff365f" stroke-width="1.4" opacity=".65"/>
  </g>

  <g transform="translate(800 455)">
    <circle r="346" fill="url(#coreGlow)"/>
    <g opacity=".36" stroke="#0b77a5"><circle r="330" fill="none"/><circle r="300" fill="none"/><circle r="270" fill="none"/><circle r="240" fill="none"/><circle r="210" fill="none"/><circle r="180" fill="none"/><circle r="150" fill="none"/><circle r="120" fill="none"/><circle r="90" fill="none"/><circle r="60" fill="none"/></g>
    <g stroke="#0bd6ff" stroke-width="1" opacity=".62"><line x1="-360" x2="360"/><line y1="-360" y2="360"/><line x1="-255" y1="-255" x2="255" y2="255"/><line x1="255" y1="-255" x2="-255" y2="255"/></g>
    <g fill="none" stroke="#12d9ff" stroke-width="9" stroke-linecap="butt" opacity=".85" filter="url(#g)"><path d="M-248-164 A300 300 0 0 1 -70-292"/><path d="M45-296 A300 300 0 0 1 232-190"/><path d="M286 12 A300 300 0 0 1 222 205"/><path d="M80 292 A300 300 0 0 1 -182 238"/><path d="M-292 70 A300 300 0 0 1 -260-150"/></g>
    <circle r="7" fill="#13d6ff" class="glow"/>
  </g>

  <g class="m" transform="translate(20 138)">
    <rect width="320" height="215" class="panel" rx="4"/><text x="16" y="28" class="t">STARTUP STACK</text>
    <g font-size="12" fill="#7ee7ff">
      <text x="18" y="56">01</text><text x="56" y="56">CORE SYSTEMS</text><rect x="200" y="48" width="92" height="4" class="barbg"/><rect x="200" y="48" width="92" height="4" class="bar"/><text x="298" y="56">100%</text>
      <text x="18" y="78">02</text><text x="56" y="78">NUCLEAR POWER</text><rect x="200" y="70" width="92" height="4" class="barbg"/><rect x="200" y="70" width="92" height="4" class="bar"/><text x="298" y="78">100%</text>
      <text x="18" y="100">03</text><text x="56" y="100">MEMORY BANKS</text><rect x="200" y="92" width="92" height="4" class="barbg"/><rect x="200" y="92" width="92" height="4" class="bar"/><text x="298" y="100">100%</text>
      <text x="18" y="122">04</text><text x="56" y="122">NEURAL INTERFACE</text><rect x="200" y="114" width="92" height="4" class="barbg"/><rect x="200" y="114" width="70" height="4" class="bar"/><text x="298" y="122">76%</text>
      <text x="18" y="144">05</text><text x="56" y="144">SUBSYSTEMS</text><rect x="200" y="136" width="92" height="4" class="barbg"/><rect x="200" y="136" width="57" height="4" class="bar"/><text x="298" y="144">62%</text>
      <text x="18" y="166">06</text><text x="56" y="166">NETWORK UPLINK</text><rect x="200" y="158" width="92" height="4" class="barbg"/><rect x="200" y="158" width="44" height="4" class="bar"/><text x="298" y="166">48%</text>
      <text x="18" y="188">07</text><text x="56" y="188">COMMAND LAYER</text><rect x="200" y="180" width="92" height="4" class="barbg"/><rect x="200" y="180" width="19" height="4" class="bar"/><text x="298" y="188">21%</text>
      <text x="18" y="210">08</text><text x="56" y="210">HANDSHAKE PROTOCOL</text><rect x="200" y="202" width="64" height="4" class="barbg"/><text x="272" y="210">PENDING</text>
    </g>
    <g transform="translate(0 230)"><rect width="320" height="140" class="panel" rx="4"/><text x="16" y="28" class="t">SUBSYSTEM LOAD</text><g transform="translate(16 48)" font-size="12" fill="#bdefff"><g><rect width="65" height="80" class="panel"/><text x="12" y="19">POWER</text><text x="10" y="37">PLANT</text><circle cx="32" cy="58" r="20" class="thin"/><text x="22" y="63">84%</text></g><g transform="translate(75 0)"><rect width="65" height="80" class="panel"/><text x="20" y="19">ARC</text><text x="12" y="37">REACTOR</text><circle cx="32" cy="58" r="20" class="thin"/><text x="22" y="63">98%</text></g><g transform="translate(150 0)"><rect width="65" height="80" class="panel"/><text x="11" y="19">SENSORS</text><text x="30" y="37">•</text><circle cx="32" cy="58" r="20" class="thin"/><text x="22" y="63">76%</text></g><g transform="translate(225 0)"><rect width="65" height="80" class="panel"/><text x="12" y="19">MOTORS</text><text x="30" y="37">•</text><circle cx="32" cy="58" r="20" class="thin"/><text x="22" y="63">63%</text></g></g></g>
    <g transform="translate(0 385)"><rect width="320" height="125" class="panel" rx="4"/><text x="16" y="28" class="t">SIGNAL LANES</text><g font-size="12" fill="#7ee7ff" transform="translate(16 55)"><text y="0">CORE BUS</text><rect x="92" y="-8" width="142" height="4" class="barbg"/><rect x="92" y="-8" width="116" height="4" class="bar"/><text x="265" y="0">82%</text><text y="22">NEURAL BUS</text><rect x="92" y="14" width="142" height="4" class="barbg"/><rect x="92" y="14" width="108" height="4" class="bar"/><text x="265" y="22">76%</text><text y="44">I/O BUS</text><rect x="92" y="36" width="142" height="4" class="barbg"/><rect x="92" y="36" width="91" height="4" class="bar"/><text x="265" y="44">64%</text><text y="66">TELEMETRY</text><rect x="92" y="58" width="142" height="4" class="barbg"/><rect x="92" y="58" width="82" height="4" class="bar"/><text x="265" y="66">58%</text><text y="88">BACKPLANE</text><rect x="92" y="80" width="142" height="4" class="barbg"/><rect x="92" y="80" width="101" height="4" class="bar"/><text x="265" y="88">71%</text></g></g>
    <g transform="translate(0 525)"><rect width="320" height="160" class="panel" rx="4"/><text x="16" y="30" class="t">POWER RAILS</text><g transform="translate(18 52)" fill="#7ee7ff" font-size="20"><g><rect width="94" height="55" class="panel"/><text x="31" y="18" class="xs">RAIL A</text><text x="22" y="42">12.1V</text></g><g transform="translate(100 0)"><rect width="94" height="55" class="panel"/><text x="31" y="18" class="xs">RAIL B</text><text x="22" y="42">11.8V</text></g><g transform="translate(200 0)"><rect width="94" height="55" class="panel"/><text x="31" y="18" class="xs">RAIL C</text><text x="22" y="42">12.0V</text></g><g transform="translate(0 61)"><rect width="94" height="55" class="panel"/><text x="31" y="18" class="xs">RAIL D</text><text x="22" y="42">5.1V</text></g><g transform="translate(100 61)"><rect width="94" height="55" class="panel"/><text x="31" y="18" class="xs">RAIL E</text><text x="22" y="42">3.3V</text></g><g transform="translate(200 61)"><rect width="94" height="55" class="panel"/><text x="31" y="18" class="xs">RAIL F</text><text x="22" y="42">5.0V</text></g></g></g>
  </g>

  <g class="m" transform="translate(1190 132)">
    <rect width="390" height="120" class="panel" rx="4"/><text x="16" y="28" class="t">NEURAL ACTIVITY</text><g transform="translate(18 48)"><rect width="350" height="60" class="barbg"/><g fill="#12d9ff"><rect x="6" y="35" width="5" height="25"/><rect x="18" y="20" width="5" height="40"/><rect x="44" y="13" width="5" height="47"/><rect x="76" y="8" width="5" height="52"/><rect x="138" y="15" width="5" height="45"/><rect x="189" y="12" width="5" height="48"/><rect x="278" y="17" width="5" height="43"/><rect x="334" y="12" width="5" height="48"/></g><g fill="#ff365f"><rect x="147" y="40" width="5" height="20"/><rect x="198" y="37" width="5" height="23"/><rect x="290" y="41" width="5" height="19"/></g></g>
    <g transform="translate(0 130)"><rect width="390" height="132" class="panel" rx="4"/><text x="16" y="28" class="t">DIAGNOSTICS</text><g font-size="12" fill="#7ee7ff" transform="translate(16 58)"><text>SYSTEM INTEGRITY</text><text y="22">MEMORY CHECK</text><text y="44">CORE TEMPERATURE</text><text y="66">POWER STABILITY</text><text y="88">UPLINK STATUS</text></g><g font-size="12" fill="#4ce8a0" transform="translate(305 58)"><text>NOMINAL</text><text y="22">NOMINAL</text><text y="44">NOMINAL</text><text y="66">NOMINAL</text><text y="88">NOMINAL</text></g></g>
    <g transform="translate(0 270)"><rect width="390" height="88" class="panel" rx="4"/><g font-size="12" fill="#7ee7ff" transform="translate(16 25)"><text>C01 OK</text><text x="92">C02 OK</text><text x="184">C03 OK</text><text x="276">C04 OK</text><text y="22">C05 OK</text><text x="92" y="22">C06 OK</text><text x="184" y="22">C07 OK</text><text x="276" y="22">C08 OK</text><text y="44">C09 OK</text><text x="92" y="44">C10 OK</text><text x="184" y="44">C11 OK</text><text x="276" y="44">C12 OK</text><text y="66">C13 OK</text><text x="92" y="66">C14 OK</text><text x="184" y="66">C15 OK</text><text x="276" y="66">C16 OK</text></g></g>
    <g transform="translate(0 370)"><rect width="390" height="140" class="panel" rx="4"/><text x="16" y="28" class="t">NETWORK SCAN</text><g font-size="12" fill="#bdefff" transform="translate(16 55)"><text>NODE</text><text x="150">STATUS</text><text x="286">LATENCY</text><text y="25">NODE_01</text><text x="150" y="25" class="green">ONLINE</text><text x="308" y="25">12ms</text><text y="47">NODE_02</text><text x="150" y="47" class="green">ONLINE</text><text x="308" y="47">15ms</text><text y="69">NODE_03</text><text x="150" y="69" class="green">ONLINE</text><text x="308" y="69">10ms</text><text y="91">NODE_04</text><text x="150" y="91" class="green">ONLINE</text><text x="308" y="91">13ms</text></g></g>
    <g transform="translate(0 520)"><rect width="390" height="80" class="panel" rx="4"/><text x="16" y="25" class="t">PACKET MONITOR</text><text x="16" y="48" class="st">INBOUND</text><rect x="110" y="39" width="190" height="5" class="barbg"/><rect x="110" y="39" width="128" height="5" class="bar"/><text x="315" y="48" class="st">892/s</text><text x="16" y="68" class="st">OUTBOUND</text><rect x="110" y="59" width="190" height="5" class="barbg"/><rect x="110" y="59" width="100" height="5" class="bar"/><text x="315" y="68" class="st">731/s</text></g>
    <g transform="translate(0 610)"><rect width="390" height="132" class="panel" rx="4"/><text x="16" y="28" class="t">BOOT TRACE</text><g font-size="11" fill="#bdefff" transform="translate(16 58)"><text>[00:00:00.000]  BOOT SEQUENCE INITIATED</text><text y="19">[00:00:01.217]  CORE SYSTEMS... OK</text><text y="38">[00:00:02.103]  NUCLEAR POWER... OK</text><text y="57">[00:00:03.654]  MEMORY BANKS... OK</text><text y="76">[00:00:04.982]  NEURAL INTERFACE... LOADING</text><text y="98">...</text></g></g>
  </g>

  <g class="m" transform="translate(450 740)"><g><rect width="210" height="100" class="panel" rx="4"/><text x="16" y="28" class="st">CORE RESONANCE</text><text x="16" y="52" class="t">87%</text><polyline points="18,78 28,65 39,73 50,60 61,82 72,70 84,74 96,63 108,79 120,68 135,77 148,66 160,80 175,70 192,74" fill="none" stroke="#3ee6ff"/></g><g transform="translate(260 0)"><rect width="210" height="100" class="panel" rx="4"/><text x="16" y="28" class="st">HANDSHAKE</text><text x="16" y="52" class="t">SYNCING</text><polyline points="18,78 28,70 38,79 48,70 58,79 68,70 78,79 88,70 98,79 108,70 118,79 128,70 138,79 148,70 158,79 168,70 188,79" fill="none" stroke="#3ee6ff"/></g><g transform="translate(520 0)"><rect width="210" height="100" class="panel" rx="4"/><text x="16" y="28" class="st">COMMAND LAYER</text><text x="16" y="52" class="t">INITIALIZING</text><polyline points="18,78 28,70 38,76 48,62 58,81 68,70 78,78 88,66 98,80 108,74 118,76 128,68 138,79 148,70 158,74 168,69 188,76" fill="none" stroke="#3ee6ff"/></g></g>

  <g class="m" transform="translate(40 865)"><path d="M0 0h1480l18 16-18 16H0L-18 16z" fill="#020b16" stroke="#0aaee5"/><text x="40" y="21" fill="#bdefff" font-size="14" letter-spacing="2">BOOT SEQUENCE IN PROGRESS...</text><rect x="360" y="11" width="600" height="10" class="barbg"/><rect x="362" y="12" width="410" height="8" class="bar"/><text x="1440" y="21" class="t">68%</text></g>
</svg>